# File created by Blade
# Date/Time:  Thu Jan 22 19:24:19 2015
# Frame Rate: 120.000 fps
#------------------------------------------------------
:FULLY-SPECIFIED
:DEGREES
2509
root 6.357629 32.031682 -3.168888 7.850822 9.768423 6.385903
RightUpLeg -18.870688 0.005280 4.974764
RightLeg 34.753856 -0.000000 -0.000000
RightFoot -26.069581 -14.488452 -2.936599
RightToeBase 2.241050 -0.000000 -0.000000
LeftUpLeg 2.733605 -11.937150 -20.314152
LeftLeg -2.653008 -0.000000 0.000000
LeftFoot -4.995410 -0.416661 -2.404478
LeftToeBase 4.971614 -0.000000 -0.000000
Spine -13.312491 -4.274903 34.439100
RightShoulder -15.232690 -16.409844 -0.578360
RightArm 21.541372 1.774073 66.390935
RightForeArm -9.739939 0.000000 16.941981
RightHand 13.653973 -0.000000 0.176580
RightHandThumb1 -24.326973 -0.000000 -32.862282
LeftShoulder -21.398399 -13.851546 59.681181
LeftArm 49.221250 -50.635591 -20.276585
LeftForeArm 12.604654 -0.000000 21.993122
LeftHand 1.476363 -0.000000 5.912489
LeftHandThumb1 -26.253704 0.000000 33.147579
Head 11.609024 -22.624246 20.504606
2510
root 6.361935 32.030378 -3.172997 7.838059 9.838940 6.387031
RightUpLeg -18.882880 -0.065827 4.972415
RightLeg 34.803084 -0.000000 -0.000000
RightFoot -26.083662 -14.484160 -2.934379
RightToeBase 2.220076 -0.000000 -0.000000
LeftUpLeg 2.750196 -11.975127 -20.325581
LeftLeg -2.648953 -0.000000 0.000000
LeftFoot -4.968499 -0.430178 -2.324805
LeftToeBase 4.929538 -0.000000 -0.000000
Spine -13.292136 -4.266792 34.465937
RightShoulder -15.259462 -16.433082 -0.572737
RightArm 21.542605 1.773942 66.389395
RightForeArm -9.724166 0.000000 16.942962
RightHand 13.684197 -0.000000 0.141416
RightHandThumb1 -24.326973 -0.000000 -32.862282
LeftShoulder -21.397172 -13.826993 59.686761
LeftArm 49.184621 -50.611621 -20.228901
LeftForeArm 12.711703 -0.000000 22.067465
LeftHand 1.505549 -0.000000 5.767620
LeftHandThumb1 -26.253704 0.000000 33.147579
Head 11.275124 -22.162339 20.529408
2511
root 6.366574 32.028752 -3.177825 7.817669 9.900931 6.395479
RightUpLeg -18.883348 -0.123105 4.952219
RightLeg 34.847038 -0.000000 -0.000000
RightFoot -26.113400 -14.424201 -2.904559
RightToeBase 2.218954 -0.000000 -0.000000
LeftUpLeg 2.769615 -11.992456 -20.347216
LeftLeg -2.639356 -0.000000 0.000000
LeftFoot -4.947305 -0.449600 -2.249275
LeftToeBase 4.961006 -0.000000 -0.000000
Spine -13.247295 -4.268322 34.483081
RightShoulder -15.268793 -16.418045 -0.575695
RightArm 21.519113 1.733827 66.377353
RightForeArm -9.702604 -0.000000 16.950309
RightHand 13.650857 -0.000000 0.093691
RightHandThumb1 -24.326973 -0.000000 -32.862282
LeftShoulder -21.415970 -13.834481 59.709185
LeftArm 49.132030 -50.553971 -20.172723
LeftForeArm 12.833853 -0.000000 22.107182
LeftHand 1.543683 -0.000000 5.818298
LeftHandThumb1 -26.253704 0.000000 33.147579
Head 10.915693 -21.604163 20.579659
2512
root 6.370819 32.027388 -3.182230 7.814095 9.975600 6.400020
RightUpLeg -18.905498 -0.257341 4.962239
RightLeg 34.889821 -0.000000 -0.000000
RightFoot -26.142239 -14.414939 -2.854084
RightToeBase 2.219054 -0.000000 -0.000000
LeftUpLeg 2.771592 -12.016150 -20.359652
LeftLeg -2.619522 -0.000000 0.000000
LeftFoot -4.927767 -0.477345 -2.151458
LeftToeBase 4.861914 -0.000000 -0.000000
Spine -13.227542 -4.271124 34.506783
RightShoulder -15.293218 -16.389247 -0.580111
RightArm 21.493554 1.698948 66.374471
RightForeArm -9.735348 -0.000000 16.946170
RightHand 13.705830 -0.000000 0.158315
RightHandThumb1 -24.326973 -0.000000 -32.862282
LeftShoulder -21.426487 -13.856960 59.733687
LeftArm 49.041102 -50.477810 -20.051612
LeftForeArm 12.906032 -0.000000 22.124308
LeftHand 1.592670 0.000000 5.875943
LeftHandThumb1 -26.253704 0.000000 33.147579
Head 10.586845 -21.130970 20.585707
2513
root 6.373870 32.026125 -3.189227 7.807646 10.026747 6.393010
RightUpLeg -18.930122 -0.336162 4.970424
RightLeg 34.932667 -0.000000 -0.000000
RightFoot -26.167583 -14.365120 -2.783048
RightToeBase 2.191903 -0.000000 -0.000000
LeftUpLeg 2.772930 -12.044038 -20.361509
LeftLeg -2.613532 -0.000000 0.000000
LeftFoot -4.931349 -0.477327 -2.124316
LeftToeBase 4.932400 -0.000000 -0.000000
Spine -13.188096 -4.252106 34.536017
RightShoulder -15.299949 -16.414250 -0.583644
RightArm 21.511280 1.589670 66.331438
RightForeArm -9.595577 -0.000000 16.933380
RightHand 13.707123 -0.000000 0.064366
RightHandThumb1 -24.326973 -0.000000 -32.862282
LeftShoulder -21.438496 -14.022840 59.794126
LeftArm 48.882465 -50.273474 -19.860928
LeftForeArm 12.911572 0.000000 22.145684
LeftHand 1.645939 -0.000000 5.720313
LeftHandThumb1 -26.253704 0.000000 33.147579
Head 10.273526 -20.643779 20.590117
2514
root 6.376634 32.025287 -3.198370 7.811811 10.073286 6.401148
RightUpLeg -18.961688 -0.430650 4.964044
RightLeg 34.964690 -0.000000 -0.000000
RightFoot -26.192339 -14.211907 -2.586865
RightToeBase 2.058210 -0.000000 -0.000000
LeftUpLeg 2.754999 -12.032453 -20.365980
LeftLeg -2.602067 -0.000000 0.000000
LeftFoot -4.907109 -0.541264 -2.036521
LeftToeBase 4.897840 -0.000000 -0.000000
Spine -13.143077 -4.233071 34.534026
RightShoulder -15.312334 -16.409358 -0.555963
RightArm 21.524140 1.485267 66.272995
RightForeArm -9.511914 -0.000000 16.906908
RightHand 13.697580 -0.000000 0.120347
RightHandThumb1 -24.326973 -0.000000 -32.862282
LeftShoulder -21.486259 -14.066683 59.841070
LeftArm 48.955729 -50.230158 -19.911669
LeftForeArm 12.932176 -0.000000 22.127923
LeftHand 1.654706 -0.000000 5.864216
LeftHandThumb1 -26.253704 0.000000 33.147579
Head 9.961696 -20.232535 20.581005
2515
root 6.379779 32.024164 -3.207762 7.816542 10.118233 6.404926
RightUpLeg -18.998233 -0.510970 4.956925
RightLeg 35.006003 -0.000000 -0.000000
RightFoot -26.232650 -14.145399 -2.505847
RightToeBase 2.077607 -0.000000 -0.000000
LeftUpLeg 2.745988 -12.034103 -20.376908
LeftLeg -2.602164 -0.000000 0.000000
LeftFoot -4.891946 -0.562688 -2.030178
LeftToeBase 4.938328 -0.000000 -0.000000
Spine -13.103830 -4.208412 34.536743
RightShoulder -15.296589 -16.373748 -0.549347
RightArm 21.493679 1.547778 66.320356
RightForeArm -9.611688 0.000000 16.866128
RightHand 13.723590 0.000000 0.147653
RightHandThumb1 -24.326973 -0.000000 -32.862282
LeftShoulder -21.480033 -13.866234 59.865344
LeftArm 49.123299 -50.474921 -20.213891
LeftForeArm 13.114683 0.000000 22.214570
LeftHand 1.676880 -0.000000 6.067548
LeftHandThumb1 -26.253704 0.000000 33.147579
Head 9.679589 -19.829372 20.560594
2516
root 6.382268 32.023743 -3.220582 7.844536 10.145762 6.402716
RightUpLeg -19.062917 -0.569489 4.954398
RightLeg 35.039113 -0.000000 -0.000000
RightFoot -26.265203 -14.079341 -2.422865
RightToeBase 2.169792 -0.000000 -0.000000
LeftUpLeg 2.706147 -12.032659 -20.369737
LeftLeg -2.617914 -0.000000 0.000000
LeftFoot -4.856011 -0.602963 -1.986096
LeftToeBase 4.933788 -0.000000 -0.000000
Spine -13.079399 -4.190864 34.562064
RightShoulder -15.245442 -16.364048 -0.580879
RightArm 21.478068 1.569967 66.374102
RightForeArm -9.691721 -0.000000 16.850760
RightHand 13.686051 0.000000 0.201680
RightHandThumb1 -24.326973 -0.000000 -32.862282
LeftShoulder -21.437275 -14.106597 59.854270
LeftArm 48.937174 -50.333689 -19.891243
LeftForeArm 13.151520 -0.000000 22.207510
LeftHand 1.639174 -0.000000 5.790338
LeftHandThumb1 -26.253704 0.000000 33.147579
Head 9.417048 -19.338903 20.542132
2517
root 6.384198 32.022866 -3.231520 7.863673 10.186457 6.403615
RightUpLeg -19.109507 -0.645104 4.952566
RightLeg 35.062814 -0.000000 -0.000000
RightFoot -26.299102 -14.030680 -2.357613
RightToeBase 2.155667 -0.000000 -0.000000
LeftUpLeg 2.681325 -12.032315 -20.368167
LeftLeg -2.624374 -0.000000 0.000000
LeftFoot -4.839269 -0.627351 -1.912174
LeftToeBase 4.887323 -0.000000 -0.000000
Spine -13.064545 -4.209097 34.582083
RightShoulder -15.182647 -16.361176 -0.608283
RightArm 21.477571 1.557825 66.424100
RightForeArm -9.691335 -0.000000 16.804946
RightHand 13.714688 -0.000000 0.137222
RightHandThumb1 -24.326973 -0.000000 -32.862282
LeftShoulder -21.465685 -14.090093 59.844862
LeftArm 48.993895 -50.300912 -19.882925
LeftForeArm 12.799435 -0.000000 22.196343
LeftHand 1.656778 -0.000000 5.772987
LeftHandThumb1 -26.253704 0.000000 33.147579
Head 9.201689 -18.863831 20.481181
